<svg width="106" height="83" viewBox="0 0 106 83" fill="none" xmlns="http://www.w3.org/2000/svg">
<path d="M0 79.4923V69.8731C0 69.6722 0.078817 69.5022 0.236451 69.3631C0.394085 69.2241 0.582683 69.1545 0.802245 69.1545H10.539C10.7585 69.1545 10.9443 69.2266 11.0963 69.3709C11.2539 69.5151 11.3328 69.6876 11.3328 69.8885V70.6148C11.3328 70.8157 11.2539 70.9882 11.0963 71.1325C10.9443 71.2715 10.7585 71.3411 10.539 71.3411H3.18364V74.0607H9.17092C9.39049 74.0607 9.57627 74.1328 9.72827 74.277C9.88591 74.4213 9.96472 74.5912 9.96472 74.787V75.521C9.96472 75.7219 9.88591 75.8944 9.72827 76.0386C9.57627 76.1777 9.39049 76.2472 9.17092 76.2472H3.18364V79.4923C3.18364 79.7035 3.10483 79.8812 2.94719 80.0254C2.79519 80.1645 2.60941 80.234 2.38984 80.234H0.802245C0.582683 80.234 0.394085 80.1645 0.236451 80.0254C0.078817 79.8812 0 79.7035 0 79.4923Z" fill="white"/>
<path d="M13.2406 70.1512V69.8885C13.2406 69.6155 13.325 69.3992 13.4939 69.2395C13.6684 69.0798 13.9077 69 14.2117 69H15.2589C15.5572 69 15.7937 69.0798 15.9682 69.2395C16.1427 69.394 16.23 69.6104 16.23 69.8885V70.1512C16.23 70.4242 16.1427 70.6405 15.9682 70.8002C15.7993 70.9599 15.5629 71.0397 15.2589 71.0397H14.2117C13.9133 71.0397 13.6769 70.9599 13.5024 70.8002C13.3278 70.6405 13.2406 70.4242 13.2406 70.1512ZM13.2744 79.7627V72.4305C13.2744 72.2914 13.3222 72.1781 13.4179 72.0905C13.5193 72.0029 13.6431 71.9592 13.7895 71.9592H15.6811C15.8331 71.9592 15.957 72.0055 16.0527 72.0982C16.1484 72.1858 16.1962 72.2965 16.1962 72.4305V79.7627C16.1962 79.9018 16.1456 80.0151 16.0442 80.1027C15.9485 80.1902 15.8275 80.234 15.6811 80.234H13.7895C13.6375 80.234 13.5136 80.1902 13.4179 80.1027C13.3222 80.0151 13.2744 79.9018 13.2744 79.7627Z" fill="white"/>
<path d="M19.7761 79.2605C18.9091 78.5085 18.4756 77.4268 18.4756 76.0155C18.4756 74.599 18.9119 73.5121 19.7845 72.755C20.6572 71.9926 21.8676 71.6115 23.4157 71.6115C24.9639 71.6115 26.1715 71.9823 27.0385 72.7241C27.9055 73.4606 28.339 74.5191 28.339 75.8996V76.34C28.339 76.479 28.2883 76.5949 28.187 76.6876C28.0913 76.7752 27.9674 76.819 27.8154 76.819H21.4566C21.5129 77.4525 21.7099 77.9135 22.0477 78.202C22.3911 78.4904 22.9372 78.6347 23.686 78.6347C24.4347 78.6347 24.9471 78.4801 25.2229 78.1711C25.4988 77.862 25.8394 77.7049 26.2447 77.6998H27.503C27.655 77.6998 27.7788 77.7461 27.8745 77.8389C27.9759 77.9264 28.0265 78.0397 28.0265 78.1788C28.0265 79.6571 26.4868 80.3937 23.4073 80.3885C21.8535 80.3885 20.6431 80.0125 19.7761 79.2605ZM21.4397 75.1887H25.3665C25.3102 73.9731 24.6571 73.3653 23.4073 73.3653C22.1631 73.3653 21.5073 73.9731 21.4397 75.1887Z" fill="white"/>
<path d="M30.5846 79.7627V69.6336C30.5846 69.4945 30.6325 69.3812 30.7282 69.2936C30.8295 69.2009 30.9534 69.1545 31.0997 69.1545H32.9913C33.1377 69.1545 33.2588 69.2009 33.3545 69.2936C33.4558 69.3812 33.5065 69.4945 33.5065 69.6336V79.7627C33.5065 79.8966 33.4558 80.0099 33.3545 80.1027C33.2588 80.1902 33.1377 80.234 32.9913 80.234H31.0997C30.9534 80.234 30.8295 80.1902 30.7282 80.1027C30.6325 80.0099 30.5846 79.8966 30.5846 79.7627Z" fill="white"/>
<path d="M39.89 80.3885C38.7133 80.3885 37.7281 80.0099 36.9343 79.2528C36.1462 78.4956 35.7521 77.4113 35.7521 76C35.7521 74.5835 36.1602 73.4993 36.9766 72.7472C37.7985 71.9901 38.9019 71.6115 40.2869 71.6115C41.0019 71.6115 41.8154 71.7428 42.7274 72.0055V69.6336C42.7274 69.4945 42.7752 69.3812 42.8709 69.2936C42.9723 69.2009 43.0961 69.1545 43.2425 69.1545H45.1257C45.2777 69.1545 45.4015 69.2009 45.4972 69.2936C45.5986 69.3812 45.6492 69.4945 45.6492 69.6336V79.7627C45.6492 79.8966 45.5986 80.0099 45.4972 80.1027C45.4015 80.1902 45.2777 80.234 45.1257 80.234H43.5043C43.3523 80.234 43.2284 80.1902 43.1327 80.1027C43.037 80.0099 42.9892 79.8966 42.9892 79.7627V79.5232C42.0997 80.1001 41.0666 80.3885 39.89 80.3885ZM40.8949 73.4812C40.118 73.4812 39.5691 73.6821 39.2482 74.0839C38.9273 74.4805 38.7668 75.1192 38.7668 76C38.7668 76.8808 38.9188 77.5221 39.2228 77.9238C39.5269 78.3256 39.9829 78.5265 40.5909 78.5265C41.2045 78.5265 41.9167 78.2947 42.7274 77.8311V73.7903C42.0011 73.5843 41.3903 73.4812 40.8949 73.4812Z" fill="white"/>
<path d="M47.5486 70.6148V69.8885C47.5486 69.6773 47.6246 69.5022 47.7766 69.3631C47.9286 69.2241 48.12 69.1545 48.3509 69.1545H59.0672C59.298 69.1545 59.4894 69.2241 59.6414 69.3631C59.7934 69.5022 59.8694 69.6773 59.8694 69.8885V70.6148C59.8694 70.826 59.7934 71.0011 59.6414 71.1402C59.4894 71.2741 59.298 71.3411 59.0672 71.3411H55.3008V79.5232C55.3008 79.7241 55.222 79.894 55.0644 80.0331C54.9124 80.167 54.7266 80.234 54.507 80.234H52.911C52.6914 80.234 52.5028 80.167 52.3452 80.0331C52.1932 79.894 52.1172 79.7241 52.1172 79.5232V71.3411H48.3509C48.12 71.3411 47.9286 71.2741 47.7766 71.1402C47.6246 71.0011 47.5486 70.826 47.5486 70.6148Z" fill="white"/>
<path d="M61.7097 79.2605C60.8427 78.5085 60.4092 77.4268 60.4092 76.0155C60.4092 74.599 60.8455 73.5121 61.7181 72.755C62.5907 71.9926 63.8011 71.6115 65.3493 71.6115C66.8975 71.6115 68.1051 71.9823 68.9721 72.7241C69.8391 73.4606 70.2726 74.5191 70.2726 75.8996V76.34C70.2726 76.479 70.2219 76.5949 70.1206 76.6876C70.0249 76.7752 69.901 76.819 69.749 76.819H63.3902C63.4465 77.4525 63.6435 77.9135 63.9813 78.202C64.3247 78.4904 64.8708 78.6347 65.6196 78.6347C66.3683 78.6347 66.8806 78.4801 67.1565 78.1711C67.4324 77.862 67.773 77.7049 68.1783 77.6998H69.4366C69.5886 77.6998 69.7124 77.7461 69.8081 77.8389C69.9095 77.9264 69.9601 78.0397 69.9601 78.1788C69.9601 79.6571 68.4204 80.3937 65.3409 80.3885C63.7871 80.3885 62.5767 80.0125 61.7097 79.2605ZM63.3733 75.1887H67.3001C67.2438 73.9731 66.5907 73.3653 65.3409 73.3653C64.0967 73.3653 63.4408 73.9731 63.3733 75.1887Z" fill="white"/>
<path d="M76.9939 80.3885C75.4175 80.3885 74.1902 80.0177 73.312 79.2759C72.4337 78.5342 71.9946 77.4448 71.9946 76.0077C71.9946 74.5655 72.4309 73.4735 73.3035 72.7318C74.1762 71.9849 75.3894 71.6115 76.9432 71.6115C78.5027 71.6115 79.699 71.8381 80.5322 72.2914C81.371 72.7447 81.7905 73.4143 81.7905 74.3002C81.7905 74.4393 81.7398 74.5526 81.6384 74.6402C81.5427 74.7277 81.4189 74.7715 81.2669 74.7715H80.0086C79.6258 74.7715 79.3021 74.5835 79.0375 74.2075C78.7053 73.7233 78.117 73.4812 77.2725 73.4812C76.4337 73.4812 75.8454 73.6795 75.5076 74.0762C75.1755 74.4676 75.0094 75.1089 75.0094 76C75.0094 76.8911 75.1811 77.535 75.5245 77.9316C75.8735 78.3282 76.4759 78.5265 77.3317 78.5265C78.193 78.5265 78.7898 78.2844 79.1219 77.8002C79.3865 77.4191 79.7102 77.2285 80.0931 77.2285H81.3513C81.5033 77.2285 81.6272 77.2748 81.7229 77.3676C81.8242 77.4551 81.8749 77.5659 81.8749 77.6998C81.8749 78.5857 81.4555 79.2553 80.6166 79.7086C79.7834 80.1619 78.5758 80.3885 76.9939 80.3885Z" fill="white"/>
<path d="M83.9516 79.7627V69.6336C83.9516 69.4945 83.9995 69.3812 84.0952 69.2936C84.1965 69.2009 84.3204 69.1545 84.4667 69.1545H86.3583C86.5047 69.1545 86.6258 69.2009 86.7215 69.2936C86.8228 69.3812 86.8735 69.4945 86.8735 69.6336V72.7318C87.8418 71.9849 88.872 71.6115 89.9642 71.6115C91.062 71.6115 91.9544 71.918 92.6412 72.5309C93.328 73.1387 93.6714 74.071 93.6714 75.3278V79.7627C93.6714 79.8966 93.6208 80.0099 93.5194 80.1027C93.4237 80.1902 93.2999 80.234 93.1479 80.234H91.2647C91.1183 80.234 90.9945 80.1902 90.8931 80.1027C90.7974 80.0099 90.7496 79.8966 90.7496 79.7627V75.3278C90.7496 74.0968 90.2119 73.4812 89.1366 73.4812C88.4329 73.4812 87.6785 73.8495 86.8735 74.5861V79.7627C86.8735 79.8966 86.8228 80.0099 86.7215 80.1027C86.6258 80.1902 86.5047 80.234 86.3583 80.234H84.4667C84.3204 80.234 84.1965 80.1902 84.0952 80.1027C83.9995 80.0099 83.9516 79.8966 83.9516 79.7627Z" fill="white"/>
<path d="M98.0789 81.0375L99.1851 81.1689C99.9789 81.1689 100.533 80.6358 100.849 79.5695C99.8917 79.5695 99.0922 79.3068 98.4505 78.7815C97.8087 78.2509 97.2569 77.3109 96.7953 75.9614L95.537 72.2296C95.5201 72.1884 95.5117 72.142 95.5117 72.0905C95.5117 72.0338 95.5455 71.9669 95.613 71.8896C95.6862 71.8124 95.7932 71.7712 95.9339 71.766H97.6989C97.8621 71.766 98.017 71.8175 98.1633 71.9205C98.3153 72.0184 98.4139 72.142 98.4589 72.2914L99.5651 75.5673C99.841 76.3709 100.12 76.9272 100.401 77.2362C100.688 77.5453 101.026 77.6998 101.415 77.6998L103.095 72.2914C103.14 72.142 103.227 72.0184 103.357 71.9205C103.492 71.8175 103.641 71.766 103.804 71.766H105.586C105.727 71.766 105.831 71.8072 105.899 71.8896C105.966 71.972 106 72.0416 106 72.0982C106 72.1497 105.994 72.1935 105.983 72.2296L103.771 79.4459C103.377 80.7233 102.887 81.635 102.301 82.181C101.721 82.727 100.973 83 100.055 83C99.1373 83 98.487 82.9691 98.1042 82.9073C97.727 82.8455 97.4906 82.7682 97.3949 82.6755C97.2992 82.5879 97.2513 82.4849 97.2513 82.3664V81.5166C97.2513 81.3775 97.2992 81.2616 97.3949 81.1689C97.4906 81.0813 97.6144 81.0375 97.7664 81.0375H98.0789Z" fill="white"/>
<g clip-path="url(#clip0_2696_297)">
<path d="M55.0029 25.1483C54.9845 25.9685 54.6794 28.4684 54.3252 30.704L53.6817 34.7684L44.7432 34.9178C39.8286 35.0002 35.576 35.2995 35.2901 35.5829C34.7758 36.0967 34.6063 36.9833 33.0635 47.2343C32.6154 50.2151 32.0997 53.4472 31.918 54.4159L31.5869 56.1776H17.0635L17.0625 54.4159C17.0625 53.4474 17.4219 50.703 17.8613 48.3182C18.3007 45.9335 19.2825 39.9583 20.042 35.0399C20.8009 30.1214 21.5446 25.5473 21.6943 24.8768L21.9658 23.6581H55.0371L55.0029 25.1483ZM89.5371 2.38464C89.338 3.5027 88.925 5.87421 88.6201 7.65515C88.316 9.43513 87.9405 11.0187 87.7852 11.1747C87.6306 11.3291 85.5082 11.4812 83.0693 11.5116C80.6321 11.5425 78.2356 11.6042 77.7432 11.6503C77.0428 11.7159 76.7121 12.7595 76.2119 16.4764C75.861 19.0849 75.3618 22.1941 75.1035 23.3866C74.8453 24.5789 74.247 27.9936 73.7734 30.9745C73.2999 33.9554 72.6606 37.7363 72.3535 39.3759C72.0465 41.0155 71.4564 44.5516 71.042 47.2343C70.6276 49.9169 70.1201 53.0266 69.9151 54.1444L69.543 56.1776H54.8975L55.2539 53.3319C55.4498 51.7672 55.9775 48.2911 56.4277 45.6083C58.078 35.7685 58.8783 30.9008 59.3682 27.7225C59.6438 25.934 60.2469 22.3978 60.708 19.8641C61.1691 17.3304 61.5463 14.4635 61.5469 13.495L61.5479 11.7343H50.1651C38.793 11.7343 38.7831 11.7351 38.5537 12.953C38.4279 13.6234 38.1175 15.1483 37.8652 16.3407L37.4063 18.5087L30.6553 18.662C26.9441 18.7465 23.6339 18.7107 23.2978 18.5829C22.8672 18.4174 23.0347 16.1744 23.876 10.8417C24.5275 6.71232 25.2407 2.66273 25.4609 1.84265L25.8603 0.352417H89.8994L89.5371 2.38464Z" fill="white"/>
</g>
<defs>
<clipPath id="clip0_2696_297">
<rect width="73" height="57" fill="white" transform="translate(17)"/>
</clipPath>
</defs>
</svg>
