<svg width="64" height="50" viewBox="0 0 64 50" fill="none" xmlns="http://www.w3.org/2000/svg">
<path d="M33.0933 21.9682C33.0772 22.6949 32.8111 24.9097 32.5021 26.8904L31.9408 30.4913L24.1443 30.6236C19.8576 30.6967 16.1483 30.9618 15.8989 31.2129C15.4503 31.6681 15.3025 32.4536 13.9568 41.5356C13.5659 44.1765 13.1161 47.04 12.9576 47.8982L12.6688 49.459H0.000851836L0 47.8982C0 47.0402 0.313494 44.6087 0.696773 42.4959C1.08005 40.3831 1.9364 35.0893 2.59884 30.7318C3.26083 26.3742 3.90949 22.3217 4.04009 21.7277L4.27689 20.648H33.1231L33.0933 21.9682ZM63.2155 1.80047C63.0418 2.79103 62.6816 4.8921 62.4156 6.46995C62.1504 8.04695 61.8229 9.44993 61.6874 9.58814C61.5526 9.72493 59.7013 9.85969 57.574 9.88662C55.4482 9.914 53.3578 9.96866 52.9283 10.0095C52.3174 10.0676 52.029 10.9922 51.5927 14.2853C51.2866 16.5963 50.8512 19.3509 50.6259 20.4074C50.4007 21.4638 49.8788 24.4891 49.4657 27.13C49.0527 29.771 48.4951 33.1207 48.2272 34.5734C47.9594 36.026 47.4447 39.1588 47.0833 41.5356C46.7218 43.9123 46.2791 46.6674 46.1003 47.6577L45.7758 49.459H33.0013L33.3122 46.9379C33.4831 45.5516 33.9433 42.4719 34.336 40.095C35.7755 31.3773 36.4735 27.0647 36.9009 24.2489C37.1413 22.6643 37.6673 19.5314 38.0695 17.2866C38.4717 15.0419 38.8007 12.5019 38.8012 11.6438L38.8021 10.0839H28.8735C18.9543 10.0839 18.9456 10.0846 18.7455 11.1636C18.6358 11.7576 18.3651 13.1086 18.145 14.165L17.7447 16.0858L11.8562 16.2216C8.61913 16.2965 5.73183 16.2648 5.43874 16.1515C5.06309 16.0049 5.20918 14.0177 5.94301 9.29312C6.5113 5.63464 7.13336 2.04685 7.32548 1.32029L7.67387 0H63.5315L63.2155 1.80047Z" fill="#024E51"/>
</svg>
