<svg width="73" height="57" viewBox="0 0 73 57" fill="none" xmlns="http://www.w3.org/2000/svg">
<path d="M38.0024 25.1483C37.984 25.9685 37.6789 28.4684 37.3247 30.704L36.6812 34.7684L27.7427 34.9178C22.8281 35.0002 18.5755 35.2995 18.2896 35.5829C17.7753 36.0967 17.6058 36.9833 16.063 47.2343C15.6149 50.2151 15.0992 53.4472 14.9175 54.4159L14.5864 56.1776H0.0629883L0.0620117 54.4159C0.0620117 53.4474 0.421423 50.703 0.86084 48.3182C1.30026 45.9335 2.28203 39.9583 3.0415 35.0399C3.80045 30.1214 4.54412 25.5473 4.69385 24.8768L4.96533 23.6581H38.0366L38.0024 25.1483ZM72.5366 2.38464C72.3375 3.5027 71.9245 5.87421 71.6196 7.65515C71.3155 9.43513 70.94 11.0187 70.7847 11.1747C70.6301 11.3291 68.5077 11.4812 66.0688 11.5116C63.6316 11.5425 61.2351 11.6042 60.7427 11.6503C60.0423 11.7159 59.7116 12.7595 59.2114 16.4764C58.8605 19.0849 58.3613 22.1941 58.103 23.3866C57.8448 24.5789 57.2465 27.9936 56.7729 30.9745C56.2994 33.9554 55.6601 37.7363 55.353 39.3759C55.046 41.0155 54.4559 44.5516 54.0415 47.2343C53.6271 49.9169 53.1196 53.0266 52.9146 54.1444L52.5425 56.1776H37.897L38.2534 53.3319C38.4493 51.7672 38.977 48.2911 39.4272 45.6083C41.0775 35.7685 41.8778 30.9008 42.3677 27.7225C42.6433 25.934 43.2464 22.3978 43.7075 19.8641C44.1686 17.3304 44.5458 14.4635 44.5464 13.495L44.5474 11.7343H33.1646C21.7925 11.7343 21.7826 11.7351 21.5532 12.953C21.4274 13.6234 21.117 15.1483 20.8647 16.3407L20.4058 18.5087L13.6548 18.662C9.94357 18.7465 6.63338 18.7107 6.29736 18.5829C5.86669 18.4174 6.03417 16.1744 6.87549 10.8417C7.52701 6.71232 8.24019 2.66273 8.46045 1.84265L8.85986 0.352417H72.8989L72.5366 2.38464Z" fill="url(#paint0_linear_575_51727)"/>
<defs>
<linearGradient id="paint0_linear_575_51727" x1="36.4805" y1="0.352417" x2="36.4805" y2="56.1776" gradientUnits="userSpaceOnUse">
<stop stop-color="#005B49"/>
<stop offset="1" stop-color="#041D34"/>
</linearGradient>
</defs>
</svg>
